<svg width="53" height="54" viewBox="0 0 53 54" fill="none" xmlns="http://www.w3.org/2000/svg">
<path d="M26.3805 -1.18021e-06C33.3035 -1.49322e-06 39.943 2.84463 44.8383 7.90811C49.7336 12.9716 52.4837 19.8392 52.4837 27C52.4837 34.1608 49.7336 41.0284 44.8383 46.0919C39.943 51.1554 33.3035 54 26.3805 54C19.4575 54 12.818 51.1554 7.92269 46.0919C3.02738 41.0284 0.277221 34.1608 0.277221 27C0.27722 19.8392 3.02738 12.9716 7.92269 7.90812C12.818 2.84463 19.4575 -8.67197e-07 26.3805 -1.18021e-06V-1.18021e-06ZM14.9603 25.3125C14.5276 25.3125 14.1127 25.4903 13.8067 25.8068C13.5007 26.1232 13.3289 26.5524 13.3289 27C13.3289 27.4476 13.5007 27.8768 13.8067 28.1932C14.1127 28.5097 14.5276 28.6875 14.9603 28.6875L33.8623 28.6875L26.8569 35.9302C26.5505 36.2471 26.3784 36.6769 26.3784 37.125C26.3784 37.5731 26.5505 38.0029 26.8569 38.3197C27.1632 38.6366 27.5787 38.8146 28.0119 38.8146C28.4452 38.8146 28.8607 38.6366 29.167 38.3197L38.9557 28.1947C39.1077 28.038 39.2282 27.8518 39.3104 27.6468C39.3927 27.4417 39.435 27.222 39.435 27C39.435 26.778 39.3927 26.5583 39.3104 26.3532C39.2282 26.1482 39.1077 25.962 38.9557 25.8052L29.167 15.6802C28.8607 15.3634 28.4452 15.1854 28.0119 15.1854C27.5787 15.1854 27.1632 15.3634 26.8569 15.6802C26.5505 15.9971 26.3784 16.4269 26.3784 16.875C26.3784 17.3231 26.5505 17.7529 26.8569 18.0697L33.8623 25.3125L14.9603 25.3125Z" fill="#F5FBF2"/>
</svg>
