<svg width="28" height="26" viewBox="0 0 28 26" fill="none" xmlns="http://www.w3.org/2000/svg">
<path d="M20.0823 0C17.7272 0 15.4669 1.134 13.9915 2.926C12.5162 1.134 10.2559 0 7.90078 0C3.73199 0 0.456512 3.388 0.456512 7.7C0.456512 12.992 5.05842 17.304 12.029 23.856L13.9915 25.69L15.9541 23.842C22.9247 17.304 27.5266 12.992 27.5266 7.7C27.5266 3.388 24.2511 0 20.0823 0ZM14.1269 21.77L13.9915 21.91L13.8562 21.77C7.41352 15.736 3.16352 11.746 3.16352 7.7C3.16352 4.9 5.19377 2.8 7.90078 2.8C9.98518 2.8 12.0154 4.186 12.7328 6.104H15.2638C15.9677 4.186 17.9979 2.8 20.0823 2.8C22.7893 2.8 24.8196 4.9 24.8196 7.7C24.8196 11.746 20.5696 15.736 14.1269 21.77Z" fill="#76607A"/>
</svg>
